<svg width="2188" height="843" viewBox="0 0 2188 843" fill="none" xmlns="http://www.w3.org/2000/svg">
<path d="M882.13 266.346V494.11C882.13 561.004 904.66 594.412 949.719 594.412C994.778 594.412 1017.31 561.004 1017.31 494.11V266.346H1135.2V513.553C1135.2 570.34 1119.92 614.704 1089.53 646.57C1059.28 678.281 1012.68 694.098 949.719 694.098C887.377 694.098 840.775 678.049 809.912 645.952C779.204 613.856 763.927 569.723 763.927 513.553V266.346H882.13Z" fill="white"/>
<path d="M1493.94 372.501C1479.13 362.47 1462.77 357.378 1444.87 357.378C1414.4 357.378 1391.63 367.717 1376.67 388.24C1361.85 408.609 1354.44 442.481 1354.44 489.777V680.507H1236.55V266.334H1354.44V309.233H1356.3C1368.02 291.333 1382.61 277.445 1400.12 267.569C1417.56 257.693 1437.23 252.755 1459.07 252.755C1475.5 253.372 1491.86 256.767 1508.14 262.939L1493.94 372.501Z" fill="white"/>
<path d="M1559.35 92.2792C1559.35 73.7618 1566.14 57.5591 1579.72 43.5167C1593.3 29.32 1609.81 22.2217 1629.41 22.2217C1649.16 22.2217 1665.67 29.32 1679.1 43.5167C1692.68 57.5591 1699.47 73.7618 1699.47 92.2792C1699.47 112.031 1692.68 128.697 1679.1 142.276C1665.67 155.701 1649.16 162.337 1629.41 162.337C1609.81 162.337 1593.3 155.701 1579.72 142.276C1566.14 128.697 1559.35 112.031 1559.35 92.2792ZM1688.67 266.343V680.515H1570.46V266.343H1688.67Z" fill="white"/>
<path d="M2071.6 266.334H2187.95V680.507H2071.6V642.546H2070.06C2057.48 658.826 2040.9 671.479 2020.37 680.507C2000 689.534 1979.09 694.086 1957.72 694.086C1903.17 694.086 1857.73 672.637 1821.31 629.584C1785.05 586.377 1766.99 533.602 1766.99 471.26C1766.99 432.373 1774.78 396.419 1790.45 363.242C1806.26 330.142 1828.72 303.523 1857.73 283.308C1886.74 262.939 1919.45 252.755 1955.87 252.755C1977.24 252.755 1998.23 257.307 2018.83 266.334C2039.35 275.207 2056.94 288.092 2071.6 304.912V266.334ZM1983.95 357.378C1957.41 357.378 1934.57 368.797 1915.44 391.635C1896.31 414.319 1886.74 441.324 1886.74 472.803C1886.74 504.514 1896.31 531.904 1915.44 554.897C1934.57 577.967 1957.57 589.463 1984.57 589.463C2012.12 589.463 2035.49 578.044 2054.63 555.206C2073.76 532.367 2083.33 504.9 2083.33 472.803C2083.33 440.938 2073.61 413.779 2054.32 391.327C2034.95 368.72 2011.5 357.378 1983.95 357.378Z" fill="white"/>
<mask id="mask0_2102_38" style="mask-type:luminance" maskUnits="userSpaceOnUse" x="-1" y="57" width="429" height="787">
<path d="M-0.000244141 57.9404H427.443V843.001H-0.000244141V57.9404Z" fill="white"/>
</mask>
<g mask="url(#mask0_2102_38)">
<path d="M65.3508 451.667C65.3508 245.198 224.292 75.9177 426.44 59.3292C415.638 58.4033 404.682 57.9404 393.649 57.9404C176.224 57.9404 -0.000244141 234.242 -0.000244141 451.667C-0.000244141 669.092 176.224 845.393 393.649 845.393C404.682 845.393 415.638 844.93 426.44 844.081C224.292 827.416 65.3508 658.136 65.3508 451.667Z" fill="#FDB32C"/>
</g>
<mask id="mask1_2102_38" style="mask-type:luminance" maskUnits="userSpaceOnUse" x="130" y="122" width="596" height="659">
<path d="M130.257 122.588H725.901V780.419H130.257V122.588Z" fill="white"/>
</mask>
<g mask="url(#mask1_2102_38)">
<path d="M642.739 639.771C595.366 686.065 530.555 714.612 459.108 714.612C313.901 714.612 196.238 596.873 196.238 451.665C196.238 306.458 313.901 188.795 459.108 188.795C530.555 188.795 595.366 217.266 642.739 263.559H728.228C668.818 178.842 570.444 123.367 459.108 123.367C277.792 123.367 130.81 270.349 130.81 451.665C130.81 632.982 277.792 779.963 459.108 779.963C570.444 779.963 668.818 724.566 728.228 639.771H642.739Z" fill="#FDB32C"/>
</g>
<path d="M329.369 475.042C328.057 467.558 327.363 459.92 327.363 452.05C327.363 444.18 328.057 436.541 329.369 429.057C339.476 341.948 406.371 272.199 492.091 257.694C481.366 255.92 470.333 254.917 459.068 254.917C350.201 254.917 261.935 343.183 261.935 452.05C261.935 560.917 350.201 649.183 459.068 649.183C470.333 649.183 481.366 648.257 492.091 646.405C406.371 631.977 339.476 562.151 329.369 475.042Z" fill="#FDB32C"/>
<mask id="mask2_2102_38" style="mask-type:luminance" maskUnits="userSpaceOnUse" x="1536" y="0" width="178" height="178">
<path d="M1536.22 0H1713.98V177.767H1536.22V0Z" fill="white"/>
</mask>
<g mask="url(#mask2_2102_38)">
<mask id="mask3_2102_38" style="mask-type:luminance" maskUnits="userSpaceOnUse" x="1536" y="0" width="178" height="178">
<path d="M1625.06 0C1575.99 0 1536.18 39.8124 1536.18 88.8835C1536.18 137.955 1575.99 177.767 1625.06 177.767C1674.13 177.767 1713.95 137.955 1713.95 88.8835C1713.95 39.8124 1674.13 0 1625.06 0Z" fill="white"/>
</mask>
<g mask="url(#mask3_2102_38)">
<path d="M1536.18 0H1713.95V177.767H1536.18V0Z" fill="#0C6733"/>
</g>
</g>
</svg>
