<svg width="839" height="323" viewBox="0 0 839 323" fill="none" xmlns="http://www.w3.org/2000/svg">
<path d="M337.993 102.052V189.321C337.993 214.952 346.626 227.752 363.89 227.752C381.155 227.752 389.787 214.952 389.787 189.321V102.052H434.959V196.771C434.959 218.529 429.106 235.527 417.458 247.737C405.869 259.887 388.013 265.947 363.89 265.947C340.004 265.947 322.148 259.798 310.323 247.5C298.557 235.202 292.703 218.292 292.703 196.771V102.052H337.993Z" fill="#0D0722"/>
<path d="M572.412 142.726C566.736 138.883 560.469 136.932 553.61 136.932C541.933 136.932 533.212 140.893 527.477 148.757C521.801 156.561 518.963 169.539 518.963 187.661V260.74H473.791V102.048H518.963V118.485H519.672C524.166 111.626 529.753 106.305 536.464 102.521C543.145 98.7367 550.684 96.8447 559.05 96.8447C565.347 97.0812 571.614 98.382 577.852 100.747L572.412 142.726Z" fill="#0D0722"/>
<path d="M597.475 35.3573C597.475 28.2623 600.076 22.0541 605.279 16.6737C610.482 11.2342 616.809 8.5144 624.318 8.5144C631.886 8.5144 638.212 11.2342 643.356 16.6737C648.559 22.0541 651.161 28.2623 651.161 35.3573C651.161 42.9254 648.559 49.3109 643.356 54.5139C638.212 59.6578 631.886 62.2002 624.318 62.2002C616.809 62.2002 610.482 59.6578 605.279 54.5139C600.076 49.3109 597.475 42.9254 597.475 35.3573ZM647.022 102.051V260.743H601.732V102.051H647.022Z" fill="#0D0722"/>
<path d="M793.745 102.048H838.326V260.74H793.745V246.195H793.154C788.336 252.433 781.98 257.281 774.116 260.74C766.311 264.199 758.3 265.943 750.111 265.943C729.21 265.943 711.798 257.725 697.844 241.229C683.95 224.674 677.032 204.453 677.032 180.566C677.032 165.667 680.018 151.89 686.019 139.178C692.079 126.496 700.682 116.297 711.798 108.552C722.913 100.747 735.448 96.8447 749.401 96.8447C757.59 96.8447 765.631 98.5889 773.525 102.048C781.388 105.447 788.129 110.384 793.745 116.829V102.048ZM760.162 136.932C749.993 136.932 741.242 141.307 733.911 150.058C726.579 158.749 722.913 169.096 722.913 181.157C722.913 193.308 726.579 203.802 733.911 212.612C741.242 221.451 750.052 225.856 760.399 225.856C770.953 225.856 779.91 221.481 787.242 212.73C794.573 203.98 798.239 193.456 798.239 181.157C798.239 168.948 794.514 158.542 787.123 149.939C779.703 141.277 770.716 136.932 760.162 136.932Z" fill="#0D0722"/>
<mask id="mask0_2252_93" style="mask-type:luminance" maskUnits="userSpaceOnUse" x="0" y="22" width="164" height="301">
<path d="M0 22.1995H163.777V323H0V22.1995Z" fill="white"/>
</mask>
<g mask="url(#mask0_2252_93)">
<path d="M25.0396 173.058C25.0396 93.9481 85.9387 29.0876 163.393 22.7316C159.254 22.3768 155.056 22.1995 150.829 22.1995C67.5212 22.1995 0 89.7502 0 173.058C0 256.365 67.5212 323.916 150.829 323.916C155.056 323.916 159.254 323.739 163.393 323.414C85.9387 317.028 25.0396 252.168 25.0396 173.058Z" fill="#FDB32C"/>
</g>
<mask id="mask1_2252_93" style="mask-type:luminance" maskUnits="userSpaceOnUse" x="49" y="46" width="230" height="254">
<path d="M49.9086 46.9698H278.133V299.021H49.9086V46.9698Z" fill="white"/>
</mask>
<g mask="url(#mask1_2252_93)">
<path d="M246.269 245.131C228.117 262.869 203.285 273.807 175.91 273.807C120.273 273.807 75.1895 228.694 75.1895 173.057C75.1895 117.42 120.273 72.3373 175.91 72.3373C203.285 72.3373 228.117 83.246 246.269 100.984H279.024C256.261 68.5238 218.568 47.2682 175.91 47.2682C106.437 47.2682 50.1204 103.585 50.1204 173.057C50.1204 242.53 106.437 298.847 175.91 298.847C218.568 298.847 256.261 277.621 279.024 245.131H246.269Z" fill="#FDB32C"/>
</g>
<path d="M126.199 182.015C125.697 179.147 125.43 176.221 125.43 173.205C125.43 170.19 125.697 167.263 126.199 164.396C130.072 131.019 155.703 104.295 188.547 98.737C184.438 98.057 180.21 97.6727 175.894 97.6727C134.181 97.6727 100.361 131.492 100.361 173.205C100.361 214.918 134.181 248.738 175.894 248.738C180.21 248.738 184.438 248.383 188.547 247.674C155.703 242.146 130.072 215.391 126.199 182.015Z" fill="#FDB32C"/>
<mask id="mask2_2252_93" style="mask-type:luminance" maskUnits="userSpaceOnUse" x="588" y="0" width="69" height="69">
<path d="M588.609 0H656.722V68.1124H588.609V0Z" fill="white"/>
</mask>
<g mask="url(#mask2_2252_93)">
<mask id="mask3_2252_93" style="mask-type:luminance" maskUnits="userSpaceOnUse" x="588" y="0" width="69" height="69">
<path d="M622.651 0C603.849 0 588.595 15.2543 588.595 34.0562C588.595 52.8581 603.849 68.1124 622.651 68.1124C641.453 68.1124 656.707 52.8581 656.707 34.0562C656.707 15.2543 641.453 0 622.651 0Z" fill="white"/>
</mask>
<g mask="url(#mask3_2252_93)">
<path d="M588.595 0H656.707V68.1124H588.595V0Z" fill="#0C6733"/>
</g>
</g>
</svg>
