<svg width="64" height="64" viewBox="0 0 64 64" fill="none" xmlns="http://www.w3.org/2000/svg">
<path fill-rule="evenodd" clip-rule="evenodd" d="M33.0001 7C32.4481 7 32.0001 7.448 32.0001 8V42.0001C32.0001 44.7601 29.7601 47.0001 27 47.0001C24.24 47.0001 22 44.7601 22 42.0001C22 39.2401 24.24 37.0001 27 37.0001C27.552 37.0001 28 36.5521 28 36.0001V28.0001C28 27.4481 27.552 27.0001 27 27.0001C18.721 27.0001 12 33.7211 12 42.0001C12 50.2791 18.721 57.0002 27 57.0002C35.2791 57.0002 42.0001 50.2791 42.0001 42.0001V25.4941C44.1361 26.4611 46.5051 27.0001 49.0001 27.0001H51.0001C51.5521 27.0001 52.0001 26.5521 52.0001 26.0001V18C52.0001 17.448 51.5521 17 51.0001 17H49.0001C45.1371 17 42.0001 13.863 42.0001 10V8C42.0001 7.448 41.5521 7 41.0001 7H33.0001ZM34.0001 9.00001H40.0001V10C40.0001 14.967 44.0331 19 49.0001 19H50.0001V25.0001H49.0001C46.2691 25.0001 43.7081 24.2691 41.5011 22.991C41.1921 22.812 40.8101 22.812 40.5011 22.99C40.1911 23.1691 40.0001 23.4991 40.0001 23.8571V42.0001C40.0001 49.1751 34.1751 55.0001 27 55.0001C19.825 55.0001 14 49.1751 14 42.0001C14 35.1621 19.292 29.5491 26 29.0381V35.0711C22.61 35.5571 20 38.4761 20 42.0001C20 45.8631 23.137 49.0001 27 49.0001C30.8631 49.0001 34.0001 45.8631 34.0001 42.0001V9.00001Z" fill="white"/>
</svg>
